NotoSansUgaritic-Regular.ufo
<glyph name="u10380" format="2">
  <advance width="981"/>
  <unicode hex="10380"/>
  <outline>
    <contour>
      <point x="361" y="115" type="curve"/>
      <point x="452" y="156"/>
      <point x="606" y="191"/>
      <point x="881" y="224" type="curve"/>
      <point x="881" y="247" type="line"/>
      <point x="625" y="264"/>
      <point x="441" y="298"/>
      <point x="354" y="330" type="curve"/>
      <point x="365" y="288"/>
      <point x="368" y="250"/>
      <point x="368" y="213" type="curve" smooth="yes"/>
      <point x="368" y="180"/>
      <point x="365" y="148"/>
    </contour>
    <contour>
      <point x="103" y="97" type="curve"/>
      <point x="152" y="136"/>
      <point x="224" y="178"/>
      <point x="374" y="213" type="curve"/>
      <point x="374" y="235" type="line"/>
      <point x="235" y="254"/>
      <point x="146" y="296"/>
      <point x="100" y="330" type="curve"/>
      <point x="108" y="289"/>
      <point x="111" y="251"/>
      <point x="111" y="214" type="curve" smooth="yes"/>
      <point x="111" y="174"/>
      <point x="107" y="136"/>
    </contour>
  </outline>
</glyph>
<glyph name="u10381" format="2">
  <advance width="981"/>
  <unicode hex="10381"/>
  <outline>
    <contour>
      <point x="529" y="209" type="curve"/>
      <point x="552" y="209" type="line"/>
      <point x="569" y="465"/>
      <point x="603" y="649"/>
      <point x="635" y="736" type="curve"/>
      <point x="593" y="725"/>
      <point x="555" y="722"/>
      <point x="518" y="722" type="curve" smooth="yes"/>
      <point x="485" y="722"/>
      <point x="453" y="725"/>
      <point x="420" y="729" type="curve"/>
      <point x="461" y="638"/>
      <point x="496" y="484"/>
    </contour>
    <contour>
      <point x="103" y="97" type="curve"/>
      <point x="152" y="136"/>
      <point x="224" y="178"/>
      <point x="374" y="213" type="curve"/>
      <point x="374" y="235" type="line"/>
      <point x="235" y="254"/>
      <point x="146" y="296"/>
      <point x="100" y="330" type="curve"/>
      <point x="108" y="289"/>
      <point x="111" y="251"/>
      <point x="111" y="214" type="curve" smooth="yes"/>
      <point x="111" y="174"/>
      <point x="107" y="136"/>
    </contour>
    <contour>
      <point x="269" y="209" type="curve"/>
      <point x="292" y="209" type="line"/>
      <point x="309" y="465"/>
      <point x="343" y="649"/>
      <point x="375" y="736" type="curve"/>
      <point x="333" y="725"/>
      <point x="295" y="722"/>
      <point x="258" y="722" type="curve" smooth="yes"/>
      <point x="225" y="722"/>
      <point x="193" y="725"/>
      <point x="160" y="729" type="curve"/>
      <point x="201" y="638"/>
      <point x="236" y="484"/>
    </contour>
    <contour>
      <point x="361" y="115" type="curve"/>
      <point x="452" y="156"/>
      <point x="606" y="191"/>
      <point x="881" y="224" type="curve"/>
      <point x="881" y="247" type="line"/>
      <point x="625" y="264"/>
      <point x="441" y="298"/>
      <point x="354" y="330" type="curve"/>
      <point x="365" y="288"/>
      <point x="368" y="250"/>
      <point x="368" y="213" type="curve" smooth="yes"/>
      <point x="368" y="180"/>
      <point x="365" y="148"/>
    </contour>
  </outline>
</glyph>
<glyph name="u10382" format="2">
  <advance width="416"/>
  <unicode hex="10382"/>
  <outline>
    <contour>
      <point x="207" y="-112" type="curve"/>
      <point x="233" y="-112" type="line"/>
      <point x="247" y="381"/>
      <point x="270" y="569"/>
      <point x="316" y="736" type="curve"/>
      <point x="276" y="727"/>
      <point x="240" y="723"/>
      <point x="205" y="723" type="curve" smooth="yes"/>
      <point x="169" y="723"/>
      <point x="134" y="727"/>
      <point x="100" y="736" type="curve"/>
      <point x="155" y="538"/>
      <point x="173" y="407"/>
    </contour>
  </outline>
</glyph>
<glyph name="u10383" format="2">
  <advance width="416"/>
  <unicode hex="10383"/>
  <outline>
    <contour>
      <point x="195" y="428" type="curve"/>
      <point x="221" y="428" type="line"/>
      <point x="247" y="581"/>
      <point x="286" y="663"/>
      <point x="316" y="736" type="curve"/>
      <point x="282" y="729"/>
      <point x="249" y="727"/>
      <point x="216" y="727" type="curve" smooth="yes"/>
      <point x="177" y="727"/>
      <point x="138" y="731"/>
      <point x="100" y="736" type="curve"/>
      <point x="133" y="667"/>
      <point x="169" y="581"/>
    </contour>
    <contour>
      <point x="195" y="-112" type="curve"/>
      <point x="221" y="-112" type="line"/>
      <point x="247" y="41"/>
      <point x="286" y="123"/>
      <point x="316" y="196" type="curve"/>
      <point x="282" y="189"/>
      <point x="249" y="187"/>
      <point x="216" y="187" type="curve" smooth="yes"/>
      <point x="177" y="187"/>
      <point x="138" y="191"/>
      <point x="100" y="196" type="curve"/>
      <point x="133" y="127"/>
      <point x="169" y="41"/>
    </contour>
    <contour>
      <point x="195" y="158" type="curve"/>
      <point x="221" y="158" type="line"/>
      <point x="247" y="311"/>
      <point x="286" y="393"/>
      <point x="316" y="466" type="curve"/>
      <point x="282" y="459"/>
      <point x="249" y="457"/>
      <point x="216" y="457" type="curve" smooth="yes"/>
      <point x="177" y="457"/>
      <point x="138" y="461"/>
      <point x="100" y="466" type="curve"/>
      <point x="133" y="397"/>
      <point x="169" y="311"/>
    </contour>
  </outline>
</glyph>
<glyph name="u10384" format="2">
  <advance width="1267"/>
  <unicode hex="10384"/>
  <outline>
    <contour>
      <point x="789" y="189" type="curve"/>
      <point x="812" y="189" type="line"/>
      <point x="829" y="445"/>
      <point x="863" y="649"/>
      <point x="895" y="736" type="curve"/>
      <point x="853" y="725"/>
      <point x="815" y="722"/>
      <point x="778" y="722" type="curve" smooth="yes"/>
      <point x="745" y="722"/>
      <point x="713" y="725"/>
      <point x="680" y="729" type="curve"/>
      <point x="721" y="638"/>
      <point x="756" y="464"/>
    </contour>
    <contour>
      <point x="100" y="114" type="curve"/>
      <point x="169" y="147"/>
      <point x="255" y="183"/>
      <point x="408" y="209" type="curve"/>
      <point x="408" y="235" type="line"/>
      <point x="255" y="261"/>
      <point x="173" y="316"/>
      <point x="100" y="346" type="curve"/>
      <point x="107" y="312"/>
      <point x="109" y="276"/>
      <point x="109" y="239" type="curve" smooth="yes"/>
      <point x="109" y="195"/>
      <point x="105" y="152"/>
    </contour>
    <contour>
      <point x="269" y="189" type="curve"/>
      <point x="292" y="189" type="line"/>
      <point x="309" y="445"/>
      <point x="343" y="649"/>
      <point x="375" y="736" type="curve"/>
      <point x="333" y="725"/>
      <point x="295" y="722"/>
      <point x="258" y="722" type="curve" smooth="yes"/>
      <point x="225" y="722"/>
      <point x="193" y="725"/>
      <point x="160" y="729" type="curve"/>
      <point x="201" y="638"/>
      <point x="236" y="464"/>
    </contour>
    <contour>
      <point x="370" y="114" type="curve"/>
      <point x="439" y="147"/>
      <point x="525" y="183"/>
      <point x="678" y="209" type="curve"/>
      <point x="678" y="235" type="line"/>
      <point x="525" y="261"/>
      <point x="443" y="300"/>
      <point x="370" y="330" type="curve"/>
      <point x="377" y="296"/>
      <point x="379" y="263"/>
      <point x="379" y="230" type="curve" smooth="yes"/>
      <point x="379" y="191"/>
      <point x="375" y="152"/>
    </contour>
    <contour>
      <point x="529" y="189" type="curve"/>
      <point x="552" y="189" type="line"/>
      <point x="569" y="445"/>
      <point x="603" y="649"/>
      <point x="635" y="736" type="curve"/>
      <point x="593" y="725"/>
      <point x="555" y="722"/>
      <point x="518" y="722" type="curve" smooth="yes"/>
      <point x="485" y="722"/>
      <point x="453" y="725"/>
      <point x="420" y="729" type="curve"/>
      <point x="461" y="638"/>
      <point x="496" y="464"/>
    </contour>
    <contour>
      <point x="640" y="114" type="curve"/>
      <point x="877" y="202"/>
      <point x="1037" y="200"/>
      <point x="1167" y="209" type="curve"/>
      <point x="1167" y="235" type="line"/>
      <point x="1001" y="249"/>
      <point x="873" y="261"/>
      <point x="640" y="330" type="curve"/>
      <point x="647" y="296"/>
      <point x="649" y="263"/>
      <point x="649" y="230" type="curve" smooth="yes"/>
      <point x="649" y="191"/>
      <point x="645" y="152"/>
    </contour>
  </outline>
</glyph>
<glyph name="u10385" format="2">
  <advance width="1048"/>
  <unicode hex="10385"/>
  <outline>
    <contour>
      <point x="100" y="465" type="curve"/>
      <point x="267" y="511"/>
      <point x="455" y="534"/>
      <point x="948" y="548" type="curve"/>
      <point x="948" y="574" type="line"/>
      <point x="429" y="608"/>
      <point x="298" y="626"/>
      <point x="100" y="681" type="curve"/>
      <point x="109" y="647"/>
      <point x="113" y="612"/>
      <point x="113" y="576" type="curve" smooth="yes"/>
      <point x="113" y="541"/>
      <point x="109" y="505"/>
    </contour>
    <contour>
      <point x="100" y="-57" type="curve"/>
      <point x="267" y="-11"/>
      <point x="455" y="12"/>
      <point x="948" y="26" type="curve"/>
      <point x="948" y="52" type="line"/>
      <point x="429" y="86"/>
      <point x="298" y="104"/>
      <point x="100" y="159" type="curve"/>
      <point x="109" y="125"/>
      <point x="113" y="90"/>
      <point x="113" y="54" type="curve" smooth="yes"/>
      <point x="113" y="19"/>
      <point x="109" y="-17"/>
    </contour>
    <contour>
      <point x="100" y="204" type="curve"/>
      <point x="267" y="250"/>
      <point x="455" y="273"/>
      <point x="948" y="287" type="curve"/>
      <point x="948" y="313" type="line"/>
      <point x="429" y="347"/>
      <point x="298" y="365"/>
      <point x="100" y="420" type="curve"/>
      <point x="109" y="386"/>
      <point x="113" y="351"/>
      <point x="113" y="315" type="curve" smooth="yes"/>
      <point x="113" y="280"/>
      <point x="109" y="244"/>
    </contour>
  </outline>
</glyph>
<glyph name="u10386" format="2">
  <advance width="1312"/>
  <unicode hex="10386"/>
  <outline>
    <contour>
      <point x="803" y="310" type="curve"/>
      <point x="873" y="343"/>
      <point x="1054" y="383"/>
      <point x="1212" y="405" type="curve"/>
      <point x="1211" y="428" type="line"/>
      <point x="1055" y="450"/>
      <point x="877" y="495"/>
      <point x="803" y="525" type="curve"/>
      <point x="810" y="491"/>
      <point x="813" y="458"/>
      <point x="813" y="425" type="curve" smooth="yes"/>
      <point x="813" y="386"/>
      <point x="809" y="348"/>
    </contour>
    <contour>
      <point x="100" y="184" type="curve"/>
      <point x="170" y="217"/>
      <point x="351" y="257"/>
      <point x="509" y="279" type="curve"/>
      <point x="509" y="302" type="line"/>
      <point x="353" y="324"/>
      <point x="174" y="369"/>
      <point x="100" y="399" type="curve"/>
      <point x="107" y="365"/>
      <point x="110" y="332"/>
      <point x="110" y="299" type="curve" smooth="yes"/>
      <point x="110" y="260"/>
      <point x="106" y="222"/>
    </contour>
    <contour>
      <point x="506" y="310" type="curve"/>
      <point x="576" y="343"/>
      <point x="757" y="383"/>
      <point x="915" y="405" type="curve"/>
      <point x="914" y="428" type="line"/>
      <point x="758" y="450"/>
      <point x="580" y="495"/>
      <point x="506" y="525" type="curve"/>
      <point x="513" y="491"/>
      <point x="516" y="458"/>
      <point x="516" y="425" type="curve" smooth="yes"/>
      <point x="516" y="386"/>
      <point x="512" y="348"/>
    </contour>
    <contour>
      <point x="100" y="438" type="curve"/>
      <point x="170" y="471"/>
      <point x="351" y="511"/>
      <point x="509" y="533" type="curve"/>
      <point x="509" y="556" type="line"/>
      <point x="353" y="578"/>
      <point x="174" y="623"/>
      <point x="100" y="653" type="curve"/>
      <point x="107" y="619"/>
      <point x="110" y="586"/>
      <point x="110" y="553" type="curve" smooth="yes"/>
      <point x="110" y="514"/>
      <point x="106" y="476"/>
    </contour>
  </outline>
</glyph>
<glyph name="u10387" format="2">
  <advance width="435"/>
  <unicode hex="10387"/>
  <outline>
    <contour>
      <point x="207" y="-112" type="curve"/>
      <point x="230" y="-112" type="line"/>
      <point x="256" y="164"/>
      <point x="286" y="349"/>
      <point x="325" y="441" type="curve"/>
      <point x="287" y="435"/>
      <point x="249" y="430"/>
      <point x="209" y="430" type="curve" smooth="yes"/>
      <point x="178" y="430"/>
      <point x="145" y="433"/>
      <point x="110" y="441" type="curve"/>
      <point x="144" y="355"/>
      <point x="183" y="144"/>
    </contour>
    <contour>
      <point x="205" y="328" type="curve"/>
      <point x="228" y="328" type="line"/>
      <point x="250" y="485"/>
      <point x="295" y="663"/>
      <point x="325" y="736" type="curve"/>
      <point x="291" y="729"/>
      <point x="258" y="727"/>
      <point x="226" y="727" type="curve" smooth="yes"/>
      <point x="186" y="727"/>
      <point x="148" y="731"/>
      <point x="110" y="736" type="curve"/>
      <point x="143" y="667"/>
      <point x="183" y="485"/>
    </contour>
  </outline>
</glyph>
<glyph name="u1038A" format="2">
  <advance width="677"/>
  <unicode hex="1038A"/>
  <outline>
    <contour>
      <point x="456" y="428" type="curve"/>
      <point x="482" y="428" type="line"/>
      <point x="508" y="581"/>
      <point x="547" y="663"/>
      <point x="577" y="736" type="curve"/>
      <point x="543" y="729"/>
      <point x="510" y="727"/>
      <point x="477" y="727" type="curve" smooth="yes"/>
      <point x="438" y="727"/>
      <point x="399" y="731"/>
      <point x="361" y="736" type="curve"/>
      <point x="394" y="667"/>
      <point x="430" y="581"/>
    </contour>
    <contour>
      <point x="195" y="-112" type="curve"/>
      <point x="221" y="-112" type="line"/>
      <point x="247" y="41"/>
      <point x="286" y="123"/>
      <point x="316" y="196" type="curve"/>
      <point x="282" y="189"/>
      <point x="249" y="187"/>
      <point x="216" y="187" type="curve" smooth="yes"/>
      <point x="177" y="187"/>
      <point x="138" y="191"/>
      <point x="100" y="196" type="curve"/>
      <point x="133" y="127"/>
      <point x="169" y="41"/>
    </contour>
    <contour>
      <point x="456" y="-112" type="curve"/>
      <point x="482" y="-112" type="line"/>
      <point x="508" y="41"/>
      <point x="547" y="123"/>
      <point x="577" y="196" type="curve"/>
      <point x="543" y="189"/>
      <point x="510" y="187"/>
      <point x="477" y="187" type="curve" smooth="yes"/>
      <point x="438" y="187"/>
      <point x="399" y="191"/>
      <point x="361" y="196" type="curve"/>
      <point x="394" y="127"/>
      <point x="430" y="41"/>
    </contour>
    <contour>
      <point x="195" y="158" type="curve"/>
      <point x="221" y="158" type="line"/>
      <point x="247" y="311"/>
      <point x="286" y="393"/>
      <point x="316" y="466" type="curve"/>
      <point x="282" y="459"/>
      <point x="249" y="457"/>
      <point x="216" y="457" type="curve" smooth="yes"/>
      <point x="177" y="457"/>
      <point x="138" y="461"/>
      <point x="100" y="466" type="curve"/>
      <point x="133" y="397"/>
      <point x="169" y="311"/>
    </contour>
    <contour>
      <point x="456" y="158" type="curve"/>
      <point x="482" y="158" type="line"/>
      <point x="508" y="311"/>
      <point x="547" y="393"/>
      <point x="577" y="466" type="curve"/>
      <point x="543" y="459"/>
      <point x="510" y="457"/>
      <point x="477" y="457" type="curve" smooth="yes"/>
      <point x="438" y="457"/>
      <point x="399" y="461"/>
      <point x="361" y="466" type="curve"/>
      <point x="394" y="397"/>
      <point x="430" y="311"/>
    </contour>
    <contour>
      <point x="195" y="428" type="curve"/>
      <point x="221" y="428" type="line"/>
      <point x="247" y="581"/>
      <point x="286" y="663"/>
      <point x="316" y="736" type="curve"/>
      <point x="282" y="729"/>
      <point x="249" y="727"/>
      <point x="216" y="727" type="curve" smooth="yes"/>
      <point x="177" y="727"/>
      <point x="138" y="731"/>
      <point x="100" y="736" type="curve"/>
      <point x="133" y="667"/>
      <point x="169" y="581"/>
    </contour>
  </outline>
</glyph>
<glyph name="u1038B" format="2">
  <advance width="1312"/>
  <unicode hex="1038B"/>
  <outline>
    <contour>
      <point x="506" y="310" type="curve"/>
      <point x="626" y="343"/>
      <point x="1049" y="386"/>
      <point x="1212" y="405" type="curve"/>
      <point x="1212" y="428" type="line"/>
      <point x="1049" y="447"/>
      <point x="626" y="502"/>
      <point x="506" y="525" type="curve"/>
      <point x="513" y="491"/>
      <point x="516" y="458"/>
      <point x="516" y="425" type="curve" smooth="yes"/>
      <point x="516" y="386"/>
      <point x="512" y="348"/>
    </contour>
    <contour>
      <point x="100" y="184" type="curve"/>
      <point x="170" y="217"/>
      <point x="351" y="257"/>
      <point x="509" y="279" type="curve"/>
      <point x="509" y="302" type="line"/>
      <point x="353" y="324"/>
      <point x="174" y="369"/>
      <point x="100" y="399" type="curve"/>
      <point x="107" y="365"/>
      <point x="110" y="332"/>
      <point x="110" y="299" type="curve" smooth="yes"/>
      <point x="110" y="260"/>
      <point x="106" y="222"/>
    </contour>
    <contour>
      <point x="100" y="438" type="curve"/>
      <point x="170" y="471"/>
      <point x="351" y="511"/>
      <point x="509" y="533" type="curve"/>
      <point x="509" y="556" type="line"/>
      <point x="353" y="578"/>
      <point x="174" y="623"/>
      <point x="100" y="653" type="curve"/>
      <point x="107" y="619"/>
      <point x="110" y="586"/>
      <point x="110" y="553" type="curve" smooth="yes"/>
      <point x="110" y="514"/>
      <point x="106" y="476"/>
    </contour>
  </outline>
</glyph>
<glyph name="u1038C" format="2">
  <advance width="1122"/>
  <unicode hex="1038C"/>
  <outline>
    <contour>
      <point x="508" y="-120" type="curve"/>
      <point x="529" y="-105" type="line"/>
      <point x="413" y="79"/>
      <point x="337" y="240"/>
      <point x="292" y="324" type="curve"/>
      <point x="337" y="408"/>
      <point x="413" y="544"/>
      <point x="529" y="728" type="curve"/>
      <point x="508" y="743" type="line"/>
      <point x="309" y="529"/>
      <point x="183" y="409"/>
      <point x="100" y="324" type="curve"/>
      <point x="188" y="244"/>
      <point x="309" y="94"/>
    </contour>
    <contour>
      <point x="659" y="-112" type="curve"/>
      <point x="685" y="-112" type="line"/>
      <point x="699" y="381"/>
      <point x="722" y="569"/>
      <point x="768" y="736" type="curve"/>
      <point x="728" y="727"/>
      <point x="692" y="723"/>
      <point x="657" y="723" type="curve" smooth="yes"/>
      <point x="621" y="723"/>
      <point x="586" y="727"/>
      <point x="552" y="736" type="curve"/>
      <point x="607" y="538"/>
      <point x="625" y="407"/>
    </contour>
    <contour>
      <point x="767" y="138" type="line"/>
      <point x="876" y="392"/>
      <point x="967" y="543"/>
      <point x="1022" y="618" type="curve"/>
      <point x="940" y="620"/>
      <point x="887" y="636"/>
      <point x="816" y="678" type="curve"/>
      <point x="817" y="668"/>
      <point x="817" y="656"/>
      <point x="817" y="643" type="curve" smooth="yes"/>
      <point x="817" y="542"/>
      <point x="796" y="367"/>
      <point x="745" y="145" type="curve"/>
    </contour>
  </outline>
</glyph>
<glyph name="u1038D" format="2">
  <advance width="938"/>
  <unicode hex="1038D"/>
  <outline>
    <contour>
      <point x="729" y="-112" type="curve"/>
      <point x="755" y="-112" type="line"/>
      <point x="769" y="381"/>
      <point x="792" y="569"/>
      <point x="838" y="736" type="curve"/>
      <point x="798" y="727"/>
      <point x="762" y="723"/>
      <point x="727" y="723" type="curve" smooth="yes"/>
      <point x="691" y="723"/>
      <point x="656" y="727"/>
      <point x="622" y="736" type="curve"/>
      <point x="677" y="538"/>
      <point x="695" y="407"/>
    </contour>
    <contour>
      <point x="207" y="-112" type="curve"/>
      <point x="233" y="-112" type="line"/>
      <point x="247" y="381"/>
      <point x="270" y="569"/>
      <point x="316" y="736" type="curve"/>
      <point x="276" y="727"/>
      <point x="240" y="723"/>
      <point x="205" y="723" type="curve" smooth="yes"/>
      <point x="169" y="723"/>
      <point x="134" y="727"/>
      <point x="100" y="736" type="curve"/>
      <point x="155" y="538"/>
      <point x="173" y="407"/>
    </contour>
    <contour>
      <point x="468" y="-112" type="curve"/>
      <point x="494" y="-112" type="line"/>
      <point x="508" y="381"/>
      <point x="531" y="569"/>
      <point x="577" y="736" type="curve"/>
      <point x="537" y="727"/>
      <point x="501" y="723"/>
      <point x="466" y="723" type="curve" smooth="yes"/>
      <point x="430" y="723"/>
      <point x="395" y="727"/>
      <point x="361" y="736" type="curve"/>
      <point x="416" y="538"/>
      <point x="434" y="407"/>
    </contour>
  </outline>
</glyph>
<glyph name="u1038E" format="2">
  <advance width="1048"/>
  <unicode hex="1038E"/>
  <outline>
    <contour>
      <point x="627" y="-108" type="curve"/>
      <point x="653" y="-108" type="line"/>
      <point x="688" y="411"/>
      <point x="706" y="542"/>
      <point x="761" y="740" type="curve"/>
      <point x="727" y="731"/>
      <point x="692" y="727"/>
      <point x="656" y="727" type="curve" smooth="yes"/>
      <point x="621" y="727"/>
      <point x="585" y="731"/>
      <point x="545" y="740" type="curve"/>
      <point x="591" y="573"/>
      <point x="614" y="385"/>
    </contour>
    <contour>
      <point x="100" y="467" type="curve"/>
      <point x="221" y="496"/>
      <point x="553" y="543"/>
      <point x="716" y="562" type="curve"/>
      <point x="716" y="585" type="line"/>
      <point x="553" y="604"/>
      <point x="220" y="659"/>
      <point x="100" y="682" type="curve"/>
      <point x="107" y="648"/>
      <point x="110" y="615"/>
      <point x="110" y="582" type="curve" smooth="yes"/>
      <point x="110" y="543"/>
      <point x="106" y="505"/>
    </contour>
  </outline>
</glyph>
<glyph name="u1038F" format="2">
  <advance width="912"/>
  <unicode hex="1038F"/>
  <outline>
    <contour>
      <point x="508" y="-120" type="curve"/>
      <point x="529" y="-105" type="line"/>
      <point x="413" y="79"/>
      <point x="337" y="240"/>
      <point x="292" y="324" type="curve"/>
      <point x="337" y="408"/>
      <point x="413" y="544"/>
      <point x="529" y="728" type="curve"/>
      <point x="508" y="743" type="line"/>
      <point x="309" y="529"/>
      <point x="183" y="409"/>
      <point x="100" y="324" type="curve"/>
      <point x="188" y="244"/>
      <point x="309" y="94"/>
    </contour>
    <contour>
      <point x="488" y="-73" type="line"/>
      <point x="597" y="181"/>
      <point x="757" y="543"/>
      <point x="812" y="618" type="curve"/>
      <point x="730" y="620"/>
      <point x="677" y="636"/>
      <point x="606" y="678" type="curve"/>
      <point x="606" y="677"/>
      <point x="606" y="670"/>
      <point x="606" y="669" type="curve" smooth="yes"/>
      <point x="606" y="555"/>
      <point x="522" y="180"/>
      <point x="466" y="-66" type="curve"/>
    </contour>
  </outline>
</glyph>
<glyph name="u10390" format="2">
  <advance width="1267"/>
  <unicode hex="10390"/>
  <outline>
    <contour>
      <point x="640" y="114" type="curve"/>
      <point x="877" y="202"/>
      <point x="1037" y="200"/>
      <point x="1167" y="209" type="curve"/>
      <point x="1167" y="235" type="line"/>
      <point x="1001" y="249"/>
      <point x="873" y="261"/>
      <point x="640" y="330" type="curve"/>
      <point x="647" y="296"/>
      <point x="649" y="263"/>
      <point x="649" y="230" type="curve" smooth="yes"/>
      <point x="649" y="191"/>
      <point x="645" y="152"/>
    </contour>
    <contour>
      <point x="100" y="114" type="curve"/>
      <point x="169" y="147"/>
      <point x="255" y="183"/>
      <point x="408" y="209" type="curve"/>
      <point x="408" y="235" type="line"/>
      <point x="255" y="261"/>
      <point x="173" y="300"/>
      <point x="100" y="330" type="curve"/>
      <point x="107" y="296"/>
      <point x="109" y="263"/>
      <point x="109" y="230" type="curve" smooth="yes"/>
      <point x="109" y="191"/>
      <point x="105" y="152"/>
    </contour>
    <contour>
      <point x="370" y="114" type="curve"/>
      <point x="439" y="147"/>
      <point x="525" y="183"/>
      <point x="678" y="209" type="curve"/>
      <point x="678" y="235" type="line"/>
      <point x="525" y="261"/>
      <point x="443" y="300"/>
      <point x="370" y="330" type="curve"/>
      <point x="377" y="296"/>
      <point x="379" y="263"/>
      <point x="379" y="230" type="curve" smooth="yes"/>
      <point x="379" y="191"/>
      <point x="375" y="152"/>
    </contour>
  </outline>
</glyph>
<glyph name="u10391" format="2">
  <advance width="1379"/>
  <unicode hex="10391"/>
  <outline>
    <contour>
      <point x="1258" y="-120" type="curve"/>
      <point x="1279" y="-105" type="line"/>
      <point x="1163" y="79"/>
      <point x="1087" y="240"/>
      <point x="1042" y="324" type="curve"/>
      <point x="1087" y="408"/>
      <point x="1163" y="544"/>
      <point x="1279" y="728" type="curve"/>
      <point x="1258" y="743" type="line"/>
      <point x="1059" y="529"/>
      <point x="933" y="409"/>
      <point x="850" y="324" type="curve"/>
      <point x="938" y="244"/>
      <point x="1059" y="94"/>
    </contour>
    <contour>
      <point x="100" y="101" type="curve"/>
      <point x="267" y="147"/>
      <point x="455" y="170"/>
      <point x="948" y="184" type="curve"/>
      <point x="948" y="210" type="line"/>
      <point x="429" y="244"/>
      <point x="298" y="262"/>
      <point x="100" y="317" type="curve"/>
      <point x="109" y="283"/>
      <point x="113" y="248"/>
      <point x="113" y="212" type="curve" smooth="yes"/>
      <point x="113" y="177"/>
      <point x="109" y="141"/>
    </contour>
    <contour>
      <point x="100" y="355" type="curve"/>
      <point x="267" y="401"/>
      <point x="455" y="424"/>
      <point x="948" y="438" type="curve"/>
      <point x="948" y="464" type="line"/>
      <point x="429" y="498"/>
      <point x="298" y="516"/>
      <point x="100" y="571" type="curve"/>
      <point x="109" y="537"/>
      <point x="113" y="502"/>
      <point x="113" y="466" type="curve" smooth="yes"/>
      <point x="113" y="431"/>
      <point x="109" y="395"/>
    </contour>
  </outline>
</glyph>
<glyph name="u10392" format="2">
  <advance width="632"/>
  <unicode hex="10392"/>
  <outline>
    <contour>
      <point x="304" y="-112" type="curve"/>
      <point x="327" y="-112" type="line"/>
      <point x="360" y="163"/>
      <point x="391" y="294"/>
      <point x="423" y="381" type="curve"/>
      <point x="383" y="371"/>
      <point x="349" y="366"/>
      <point x="316" y="366" type="curve" smooth="yes"/>
      <point x="282" y="366"/>
      <point x="248" y="371"/>
      <point x="208" y="381" type="curve"/>
      <point x="240" y="294"/>
      <point x="287" y="144"/>
    </contour>
    <contour>
      <point x="196" y="363" type="curve"/>
      <point x="219" y="363" type="line"/>
      <point x="256" y="593"/>
      <point x="283" y="649"/>
      <point x="315" y="736" type="curve"/>
      <point x="275" y="726"/>
      <point x="241" y="721"/>
      <point x="208" y="721" type="curve" smooth="yes"/>
      <point x="174" y="721"/>
      <point x="140" y="726"/>
      <point x="100" y="736" type="curve"/>
      <point x="132" y="649"/>
      <point x="159" y="593"/>
    </contour>
    <contour>
      <point x="413" y="363" type="curve"/>
      <point x="436" y="363" type="line"/>
      <point x="473" y="593"/>
      <point x="500" y="649"/>
      <point x="532" y="736" type="curve"/>
      <point x="492" y="726"/>
      <point x="458" y="721"/>
      <point x="425" y="721" type="curve" smooth="yes"/>
      <point x="391" y="721"/>
      <point x="357" y="726"/>
      <point x="317" y="736" type="curve"/>
      <point x="349" y="649"/>
      <point x="376" y="593"/>
    </contour>
  </outline>
</glyph>
<glyph name="u10393" format="2">
  <advance width="629"/>
  <unicode hex="10393"/>
  <outline>
    <contour>
      <point x="508" y="-120" type="curve"/>
      <point x="529" y="-105" type="line"/>
      <point x="413" y="79"/>
      <point x="337" y="240"/>
      <point x="292" y="324" type="curve"/>
      <point x="337" y="408"/>
      <point x="413" y="544"/>
      <point x="529" y="728" type="curve"/>
      <point x="508" y="743" type="line"/>
      <point x="309" y="529"/>
      <point x="183" y="409"/>
      <point x="100" y="324" type="curve"/>
      <point x="188" y="244"/>
      <point x="309" y="94"/>
    </contour>
  </outline>
</glyph>
<glyph name="u10394" format="2">
  <advance width="1048"/>
  <unicode hex="10394"/>
  <outline>
    <contour>
      <point x="100" y="355" type="curve"/>
      <point x="267" y="401"/>
      <point x="455" y="424"/>
      <point x="948" y="438" type="curve"/>
      <point x="948" y="464" type="line"/>
      <point x="429" y="498"/>
      <point x="298" y="516"/>
      <point x="100" y="571" type="curve"/>
      <point x="109" y="537"/>
      <point x="113" y="502"/>
      <point x="113" y="466" type="curve" smooth="yes"/>
      <point x="113" y="431"/>
      <point x="109" y="395"/>
    </contour>
    <contour>
      <point x="100" y="101" type="curve"/>
      <point x="267" y="147"/>
      <point x="455" y="170"/>
      <point x="948" y="184" type="curve"/>
      <point x="948" y="210" type="line"/>
      <point x="429" y="244"/>
      <point x="298" y="262"/>
      <point x="100" y="317" type="curve"/>
      <point x="109" y="283"/>
      <point x="113" y="248"/>
      <point x="113" y="212" type="curve" smooth="yes"/>
      <point x="113" y="177"/>
      <point x="109" y="141"/>
    </contour>
  </outline>
</glyph>
<glyph name="u10395" format="2">
  <advance width="1048"/>
  <unicode hex="10395"/>
  <outline>
    <contour>
      <point x="627" y="-108" type="curve"/>
      <point x="653" y="-108" type="line"/>
      <point x="688" y="411"/>
      <point x="706" y="542"/>
      <point x="761" y="740" type="curve"/>
      <point x="727" y="731"/>
      <point x="692" y="727"/>
      <point x="656" y="727" type="curve" smooth="yes"/>
      <point x="621" y="727"/>
      <point x="585" y="731"/>
      <point x="545" y="740" type="curve"/>
      <point x="591" y="573"/>
      <point x="614" y="385"/>
    </contour>
    <contour>
      <point x="367" y="-108" type="curve"/>
      <point x="393" y="-108" type="line"/>
      <point x="427" y="411"/>
      <point x="445" y="542"/>
      <point x="500" y="740" type="curve"/>
      <point x="466" y="731"/>
      <point x="431" y="727"/>
      <point x="395" y="727" type="curve" smooth="yes"/>
      <point x="360" y="727"/>
      <point x="324" y="731"/>
      <point x="284" y="740" type="curve"/>
      <point x="330" y="573"/>
      <point x="353" y="385"/>
    </contour>
  </outline>
</glyph>
<glyph name="u10396" format="2">
  <advance width="1127"/>
  <unicode hex="10396"/>
  <outline>
    <contour>
      <point x="1006" y="-120" type="curve"/>
      <point x="1027" y="-105" type="line"/>
      <point x="911" y="79"/>
      <point x="835" y="240"/>
      <point x="790" y="324" type="curve"/>
      <point x="835" y="408"/>
      <point x="911" y="544"/>
      <point x="1027" y="728" type="curve"/>
      <point x="1006" y="743" type="line"/>
      <point x="807" y="529"/>
      <point x="681" y="409"/>
      <point x="598" y="324" type="curve"/>
      <point x="686" y="244"/>
      <point x="807" y="94"/>
    </contour>
    <contour>
      <point x="104" y="206" type="curve"/>
      <point x="167" y="225"/>
      <point x="514" y="295"/>
      <point x="695" y="315" type="curve"/>
      <point x="695" y="339" type="line"/>
      <point x="514" y="359"/>
      <point x="163" y="403"/>
      <point x="100" y="422" type="curve"/>
      <point x="106" y="380"/>
      <point x="108" y="342"/>
      <point x="108" y="306" type="curve" smooth="yes"/>
      <point x="108" y="272"/>
      <point x="106" y="239"/>
    </contour>
  </outline>
</glyph>
<glyph name="u10397" format="2">
  <advance width="1375"/>
  <unicode hex="10397"/>
  <outline>
    <contour>
      <point x="866" y="310" type="curve"/>
      <point x="936" y="343"/>
      <point x="1117" y="383"/>
      <point x="1275" y="405" type="curve"/>
      <point x="1274" y="428" type="line"/>
      <point x="1118" y="450"/>
      <point x="940" y="495"/>
      <point x="866" y="525" type="curve"/>
      <point x="873" y="491"/>
      <point x="876" y="458"/>
      <point x="876" y="425" type="curve" smooth="yes"/>
      <point x="876" y="386"/>
      <point x="872" y="348"/>
    </contour>
    <contour>
      <point x="100" y="184" type="curve"/>
      <point x="170" y="217"/>
      <point x="350" y="257"/>
      <point x="508" y="279" type="curve"/>
      <point x="508" y="302" type="line"/>
      <point x="352" y="324"/>
      <point x="174" y="369"/>
      <point x="100" y="399" type="curve"/>
      <point x="107" y="365"/>
      <point x="110" y="332"/>
      <point x="110" y="299" type="curve" smooth="yes"/>
      <point x="110" y="260"/>
      <point x="106" y="222"/>
    </contour>
    <contour>
      <point x="460" y="184" type="curve"/>
      <point x="530" y="217"/>
      <point x="710" y="257"/>
      <point x="868" y="279" type="curve"/>
      <point x="868" y="302" type="line"/>
      <point x="712" y="324"/>
      <point x="534" y="369"/>
      <point x="460" y="399" type="curve"/>
      <point x="467" y="365"/>
      <point x="470" y="332"/>
      <point x="470" y="299" type="curve" smooth="yes"/>
      <point x="470" y="260"/>
      <point x="466" y="222"/>
    </contour>
    <contour>
      <point x="534" y="623"/>
    </contour>
    <contour>
      <point x="100" y="438" type="curve"/>
      <point x="170" y="471"/>
      <point x="350" y="511"/>
      <point x="508" y="533" type="curve"/>
      <point x="508" y="556" type="line"/>
      <point x="352" y="578"/>
      <point x="174" y="623"/>
      <point x="100" y="653" type="curve"/>
      <point x="107" y="619"/>
      <point x="110" y="586"/>
      <point x="110" y="553" type="curve" smooth="yes"/>
      <point x="110" y="514"/>
      <point x="106" y="476"/>
    </contour>
    <contour>
      <point x="460" y="438" type="curve"/>
      <point x="530" y="471"/>
      <point x="710" y="511"/>
      <point x="868" y="533" type="curve"/>
      <point x="868" y="556" type="line"/>
      <point x="712" y="578"/>
      <point x="534" y="623"/>
      <point x="460" y="653" type="curve"/>
      <point x="467" y="619"/>
      <point x="470" y="586"/>
      <point x="470" y="553" type="curve" smooth="yes"/>
      <point x="470" y="514"/>
      <point x="466" y="476"/>
    </contour>
  </outline>
</glyph>
<glyph name="u10398" format="2">
  <advance width="642"/>
  <unicode hex="10398"/>
  <outline>
    <contour>
      <point x="528" y="-22" type="curve"/>
      <point x="542" y="-2" type="line"/>
      <point x="426" y="132"/>
      <point x="337" y="259"/>
      <point x="292" y="321" type="curve"/>
      <point x="337" y="382"/>
      <point x="426" y="491"/>
      <point x="542" y="625" type="curve"/>
      <point x="528" y="645" type="line"/>
      <point x="329" y="489"/>
      <point x="183" y="383"/>
      <point x="100" y="321" type="curve"/>
      <point x="188" y="262"/>
      <point x="329" y="134"/>
    </contour>
    <contour>
      <point x="367" y="-112" type="curve"/>
      <point x="393" y="-112" type="line"/>
      <point x="407" y="381"/>
      <point x="430" y="569"/>
      <point x="476" y="736" type="curve"/>
      <point x="436" y="727"/>
      <point x="400" y="723"/>
      <point x="365" y="723" type="curve" smooth="yes"/>
      <point x="329" y="723"/>
      <point x="294" y="727"/>
      <point x="260" y="736" type="curve"/>
      <point x="315" y="538"/>
      <point x="333" y="407"/>
    </contour>
  </outline>
</glyph>
<glyph name="u10399" format="2">
  <advance width="1048"/>
  <unicode hex="10399"/>
  <outline>
    <contour>
      <point x="409" y="-68" type="curve"/>
      <point x="455" y="12"/>
      <point x="725" y="271"/>
      <point x="912" y="446" type="curve"/>
      <point x="898" y="465" type="line"/>
      <point x="666" y="315"/>
      <point x="359" y="128"/>
      <point x="271" y="97" type="curve"/>
      <point x="338" y="49"/>
      <point x="373" y="7"/>
    </contour>
    <contour>
      <point x="100" y="204" type="curve"/>
      <point x="267" y="250"/>
      <point x="455" y="273"/>
      <point x="948" y="287" type="curve"/>
      <point x="948" y="313" type="line"/>
      <point x="429" y="347"/>
      <point x="298" y="365"/>
      <point x="100" y="420" type="curve"/>
      <point x="109" y="386"/>
      <point x="113" y="351"/>
      <point x="113" y="315" type="curve" smooth="yes"/>
      <point x="113" y="280"/>
      <point x="109" y="244"/>
    </contour>
  </outline>
</glyph>
<glyph name="u1039A" format="2">
  <advance width="1048"/>
  <unicode hex="1039A"/>
  <outline>
    <contour>
      <point x="100" y="204" type="curve"/>
      <point x="267" y="250"/>
      <point x="455" y="273"/>
      <point x="948" y="287" type="curve"/>
      <point x="948" y="313" type="line"/>
      <point x="429" y="347"/>
      <point x="298" y="365"/>
      <point x="100" y="420" type="curve"/>
      <point x="109" y="386"/>
      <point x="113" y="351"/>
      <point x="113" y="315" type="curve" smooth="yes"/>
      <point x="113" y="280"/>
      <point x="109" y="244"/>
    </contour>
  </outline>
</glyph>
<glyph name="u1039C" format="2">
  <advance width="1048"/>
  <unicode hex="1039C"/>
  <outline>
    <contour>
      <point x="100" y="104" type="curve"/>
      <point x="267" y="150"/>
      <point x="455" y="173"/>
      <point x="948" y="187" type="curve"/>
      <point x="948" y="213" type="line"/>
      <point x="429" y="247"/>
      <point x="298" y="265"/>
      <point x="100" y="320" type="curve"/>
      <point x="109" y="286"/>
      <point x="113" y="251"/>
      <point x="113" y="215" type="curve" smooth="yes"/>
      <point x="113" y="180"/>
      <point x="109" y="144"/>
    </contour>
    <contour>
      <point x="269" y="189" type="curve"/>
      <point x="292" y="189" type="line"/>
      <point x="309" y="445"/>
      <point x="343" y="649"/>
      <point x="375" y="736" type="curve"/>
      <point x="333" y="725"/>
      <point x="295" y="722"/>
      <point x="258" y="722" type="curve" smooth="yes"/>
      <point x="225" y="722"/>
      <point x="193" y="725"/>
      <point x="160" y="729" type="curve"/>
      <point x="201" y="638"/>
      <point x="236" y="464"/>
    </contour>
    <contour>
      <point x="529" y="189" type="curve"/>
      <point x="552" y="189" type="line"/>
      <point x="569" y="445"/>
      <point x="603" y="649"/>
      <point x="635" y="736" type="curve"/>
      <point x="593" y="725"/>
      <point x="555" y="722"/>
      <point x="518" y="722" type="curve" smooth="yes"/>
      <point x="485" y="722"/>
      <point x="453" y="725"/>
      <point x="420" y="729" type="curve"/>
      <point x="461" y="638"/>
      <point x="496" y="464"/>
    </contour>
    <contour>
      <point x="789" y="189" type="curve"/>
      <point x="812" y="189" type="line"/>
      <point x="829" y="445"/>
      <point x="863" y="649"/>
      <point x="895" y="736" type="curve"/>
      <point x="853" y="725"/>
      <point x="815" y="722"/>
      <point x="778" y="722" type="curve" smooth="yes"/>
      <point x="745" y="722"/>
      <point x="713" y="725"/>
      <point x="680" y="729" type="curve"/>
      <point x="721" y="638"/>
      <point x="756" y="464"/>
    </contour>
  </outline>
</glyph>
<glyph name="u1039D" format="2">
  <advance width="830"/>
  <unicode hex="1039D"/>
  <outline>
    <contour>
      <point x="424" y="-112" type="curve"/>
      <point x="450" y="-112" type="line"/>
      <point x="464" y="381"/>
      <point x="487" y="569"/>
      <point x="533" y="736" type="curve"/>
      <point x="493" y="727"/>
      <point x="457" y="723"/>
      <point x="422" y="723" type="curve" smooth="yes"/>
      <point x="386" y="723"/>
      <point x="351" y="727"/>
      <point x="317" y="736" type="curve"/>
      <point x="372" y="538"/>
      <point x="390" y="407"/>
    </contour>
    <contour>
      <point x="263" y="-112" type="curve"/>
      <point x="280" y="-98" type="line"/>
      <point x="250" y="-51"/>
      <point x="231" y="-11"/>
      <point x="209" y="28" type="curve"/>
      <point x="231" y="68"/>
      <point x="250" y="107"/>
      <point x="280" y="154" type="curve"/>
      <point x="263" y="165" type="line"/>
      <point x="173" y="86"/>
      <point x="136" y="60"/>
      <point x="100" y="28" type="curve"/>
      <point x="153" y="-10"/>
      <point x="174" y="-33"/>
    </contour>
    <contour>
      <point x="263" y="173" type="curve"/>
      <point x="280" y="187" type="line"/>
      <point x="250" y="234"/>
      <point x="231" y="274"/>
      <point x="209" y="313" type="curve"/>
      <point x="231" y="353"/>
      <point x="250" y="392"/>
      <point x="280" y="439" type="curve"/>
      <point x="263" y="450" type="line"/>
      <point x="173" y="371"/>
      <point x="136" y="345"/>
      <point x="100" y="313" type="curve"/>
      <point x="153" y="275"/>
      <point x="174" y="252"/>
    </contour>
    <contour>
      <point x="713" y="-112" type="curve"/>
      <point x="730" y="-98" type="line"/>
      <point x="700" y="-51"/>
      <point x="681" y="-11"/>
      <point x="659" y="28" type="curve"/>
      <point x="681" y="68"/>
      <point x="700" y="107"/>
      <point x="730" y="154" type="curve"/>
      <point x="713" y="165" type="line"/>
      <point x="623" y="86"/>
      <point x="586" y="60"/>
      <point x="550" y="28" type="curve"/>
      <point x="603" y="-10"/>
      <point x="624" y="-33"/>
    </contour>
    <contour>
      <point x="263" y="459" type="curve"/>
      <point x="280" y="473" type="line"/>
      <point x="250" y="520"/>
      <point x="231" y="560"/>
      <point x="209" y="599" type="curve"/>
      <point x="231" y="639"/>
      <point x="250" y="678"/>
      <point x="280" y="725" type="curve"/>
      <point x="263" y="736" type="line"/>
      <point x="173" y="657"/>
      <point x="136" y="631"/>
      <point x="100" y="599" type="curve"/>
      <point x="153" y="561"/>
      <point x="174" y="538"/>
    </contour>
    <contour>
      <point x="713" y="173" type="curve"/>
      <point x="730" y="187" type="line"/>
      <point x="700" y="234"/>
      <point x="681" y="274"/>
      <point x="659" y="313" type="curve"/>
      <point x="681" y="353"/>
      <point x="700" y="392"/>
      <point x="730" y="439" type="curve"/>
      <point x="713" y="450" type="line"/>
      <point x="623" y="371"/>
      <point x="586" y="345"/>
      <point x="550" y="313" type="curve"/>
      <point x="603" y="275"/>
      <point x="624" y="252"/>
    </contour>
    <contour>
      <point x="713" y="459" type="curve"/>
      <point x="730" y="473" type="line"/>
      <point x="700" y="520"/>
      <point x="681" y="560"/>
      <point x="659" y="599" type="curve"/>
      <point x="681" y="639"/>
      <point x="700" y="678"/>
      <point x="730" y="725" type="curve"/>
      <point x="713" y="736" type="line"/>
      <point x="623" y="657"/>
      <point x="586" y="631"/>
      <point x="550" y="599" type="curve"/>
      <point x="603" y="561"/>
      <point x="624" y="538"/>
    </contour>
  </outline>
</glyph>
<glyph name="u1039F" format="2">
  <advance width="416"/>
  <unicode hex="1039F"/>
  <outline>
    <contour>
      <point x="195" y="158" type="curve"/>
      <point x="221" y="158" type="line"/>
      <point x="247" y="311"/>
      <point x="286" y="393"/>
      <point x="316" y="466" type="curve"/>
      <point x="282" y="459"/>
      <point x="249" y="457"/>
      <point x="216" y="457" type="curve" smooth="yes"/>
      <point x="177" y="457"/>
      <point x="138" y="461"/>
      <point x="100" y="466" type="curve"/>
      <point x="133" y="397"/>
      <point x="169" y="311"/>
    </contour>
  </outline>
</glyph>
